<svg width="24" height="24" viewBox="0 0 24 24" fill="none" xmlns="http://www.w3.org/2000/svg">
<path d="M12 21C14.1 21 15.9583 20.3625 17.575 19.0875C19.1917 17.8125 20.2417 16.1833 20.725 14.2C20.7917 13.95 20.7417 13.7208 20.575 13.5125C20.4083 13.3042 20.1833 13.1833 19.9 13.15C19.6333 13.1167 19.3917 13.1667 19.175 13.3C18.9583 13.4333 18.8083 13.6333 18.725 13.9C18.325 15.4 17.5 16.625 16.25 17.575C15 18.525 13.5833 19 12 19C10.05 19 8.39583 18.3208 7.0375 16.9625C5.67917 15.6042 5 13.95 5 12C5 10.05 5.67917 8.39583 7.0375 7.0375C8.39583 5.67917 10.05 5 12 5C13.15 5 14.225 5.26667 15.225 5.8C16.225 6.33333 17.0667 7.06667 17.75 8H16C15.7167 8 15.4792 8.09583 15.2875 8.2875C15.0958 8.47917 15 8.71667 15 9C15 9.28333 15.0958 9.52083 15.2875 9.7125C15.4792 9.90417 15.7167 10 16 10H20C20.2833 10 20.5208 9.90417 20.7125 9.7125C20.9042 9.52083 21 9.28333 21 9V5C21 4.71667 20.9042 4.47917 20.7125 4.2875C20.5208 4.09583 20.2833 4 20 4C19.7167 4 19.4792 4.09583 19.2875 4.2875C19.0958 4.47917 19 4.71667 19 5V6.35C18.15 5.28333 17.1125 4.45833 15.8875 3.875C14.6625 3.29167 13.3667 3 12 3C10.75 3 9.57917 3.2375 8.4875 3.7125C7.39583 4.1875 6.44583 4.82917 5.6375 5.6375C4.82917 6.44583 4.1875 7.39583 3.7125 8.4875C3.2375 9.57917 3 10.75 3 12C3 13.25 3.2375 14.4208 3.7125 15.5125C4.1875 16.6042 4.82917 17.5542 5.6375 18.3625C6.44583 19.1708 7.39583 19.8125 8.4875 20.2875C9.57917 20.7625 10.75 21 12 21Z" fill="white"/>
</svg>
